<svg xmlns="http://www.w3.org/2000/svg" width="300" height="80.166" viewBox="0 0 300 80.166">
  <g id="그룹_90" data-name="그룹 90" transform="translate(4752.603 -6053.584)">
    <path id="패스_206" data-name="패스 206" d="M48.008,29.744c7.864,0,14.264-5.9,14.264-13.154S55.872,3.436,48.008,3.436,33.744,9.338,33.744,16.59s6.4,13.154,14.264,13.154m0-20.355c4.582,0,8.311,3.231,8.311,7.2s-3.73,7.2-8.311,7.2S39.7,20.559,39.7,16.59s3.73-7.2,8.311-7.2" transform="translate(-4786.347 6059.2)" fill="#fff"/>
    <path id="패스_207" data-name="패스 207" d="M83.557,3.071H51.6V23.288H83.557Zm-26,5.95H77.6v8.311H57.552Z" transform="translate(-4750.629 6058.47)" fill="#fff"/>
    <path id="패스_208" data-name="패스 208" d="M91.842,23.621a11.253,11.253,0,0,0-2.145-6.6h4.642V11.07H65.975v5.953h4.819a11.253,11.253,0,0,0-2.145,6.6,11.6,11.6,0,0,0,23.193,0m-17.24,0a5.646,5.646,0,1,1,5.644,5.473A5.566,5.566,0,0,1,74.6,23.621" transform="translate(-4721.871 6074.471)" fill="#fff"/>
    <path id="패스_209" data-name="패스 209" d="M69.063,12.154a4.907,4.907,0,1,0,4.906-4.909,4.906,4.906,0,0,0-4.906,4.909" transform="translate(-4715.694 6066.818)" fill="#fff"/>
    <path id="패스_210" data-name="패스 210" d="M75.467,15.853A2.976,2.976,0,0,0,71.446,17.1a19.595,19.595,0,0,1-8.611,8.437H40.821V14.3H34.868V31.488H63.549a2.965,2.965,0,0,0,1.254-.279A25.735,25.735,0,0,0,76.712,19.874a2.976,2.976,0,0,0-1.245-4.021" transform="translate(-4784.099 6080.936)" fill="#fff"/>
    <path id="패스_211" data-name="패스 211" d="M90.232,15.3a2.978,2.978,0,0,0-3.916,1.545,19.635,19.635,0,0,1-7.342,8.689H57.131V14.3H51.178V31.488H79.859a2.948,2.948,0,0,0,1.527-.426,25.736,25.736,0,0,0,10.39-11.846A2.978,2.978,0,0,0,90.232,15.3" transform="translate(-4751.472 6080.936)" fill="#fff"/>
    <path id="패스_212" data-name="패스 212" d="M167.693,12.431a2.973,2.973,0,0,0-3.913,1.548,19.636,19.636,0,0,1-7.339,8.683h-15.9V13.133H134.6v9.529H115.855v5.953h41.457l.012,0a2.955,2.955,0,0,0,1.527-.426,25.723,25.723,0,0,0,10.39-11.849,2.974,2.974,0,0,0-1.548-3.913" transform="translate(-4622.091 6076.701)" fill="#fff"/>
    <path id="패스_213" data-name="패스 213" d="M67.7,28.544h5.953V17.023h17.39V11.07H50.305v5.953H67.7Z" transform="translate(-4753.218 6074.47)" fill="#fff"/>
    <path id="패스_214" data-name="패스 214" d="M54.3,38.452V7.29a2.963,2.963,0,0,0-.873-2.1L49.529,1.292A2.976,2.976,0,1,0,45.322,5.5l3.021,3.021V38.452Z" transform="translate(-4764.933 6053.165)" fill="#fff"/>
    <path id="패스_215" data-name="패스 215" d="M88.347,19.723l-2.463,2.463V14.2a2.957,2.957,0,0,0-.873-2.1L81.116,8.2a2.977,2.977,0,0,0-4.21,4.21l3.024,3.024V45.365h5.953V30.6l6.673-6.67a2.977,2.977,0,0,0-4.21-4.21" transform="translate(-4701.746 6066.991)" fill="#fff"/>
    <path id="패스_216" data-name="패스 216" d="M68.407,26.887H95.192V39.546h5.953V20.934H68.407Z" transform="translate(-4717.006 6094.203)" fill="#fff"/>
    <path id="패스_217" data-name="패스 217" d="M107.173,23.288h13.748V3.071H88.964V23.288H101.22v3.784H83.848v5.953h42.135V27.071h-18.81ZM94.917,9.021h20.052v8.311H94.917Z" transform="translate(-4686.117 6058.47)" fill="#fff"/>
    <path id="패스_218" data-name="패스 218" d="M123.717,8.606h-5.953V16h-18.2v5.953h46.195V16H123.717Z" transform="translate(-4654.68 6069.542)" fill="#fff"/>
    <path id="패스_219" data-name="패스 219" d="M84.671,20.085h29.365v13.07h5.953V14.133H84.671Z" transform="translate(-4684.472 6080.597)" fill="#fff"/>
    <path id="패스_220" data-name="패스 220" d="M114.91,13.686A12.009,12.009,0,1,0,126.917,25.7,12.023,12.023,0,0,0,114.91,13.686m0,18.3A6.286,6.286,0,1,1,121.2,25.7a6.294,6.294,0,0,1-6.286,6.286" transform="translate(-4648.001 6079.705)" fill="#fff"/>
    <path id="패스_221" data-name="패스 221" d="M128.845,21.806l5.68,1.782a58.523,58.523,0,0,0,2.688-17.54V3.071H101.484V9.024h29.692c-.09,1.6-.255,3.189-.489,4.759a52.857,52.857,0,0,1-1.842,8.023" transform="translate(-4650.837 6058.47)" fill="#fff"/>
    <path id="패스_222" data-name="패스 222" d="M139.883,3.258h-5.953V10.24c-.2.318-.4.66-.621,1.023-1.5,2.481-3.561,5.881-6.247,8.065a36.552,36.552,0,0,1-10.988,6.139l1.974,5.614a42.475,42.475,0,0,0,12.77-7.135,32.661,32.661,0,0,0,6.733-8.218,32.792,32.792,0,0,0,6.733,8.218,42.54,42.54,0,0,0,12.77,7.135l1.974-5.614a36.5,36.5,0,0,1-10.985-6.139c-2.685-2.184-4.744-5.584-6.247-8.065-.219-.363-.426-.705-.624-1.023V3.258Z" transform="translate(-4621.651 6058.843)" fill="#fff"/>
  </g>
</svg>
