<svg xmlns="http://www.w3.org/2000/svg" xmlns:xlink="http://www.w3.org/1999/xlink" width="230" height="35.984" viewBox="0 0 230 35.984">
  <defs>
    <clipPath id="clip-path">
      <rect id="사각형_17" data-name="사각형 17" width="34.031" height="35.984"/>
    </clipPath>
  </defs>
  <g id="그룹_97" data-name="그룹 97" transform="translate(-572 -70)">
    <path id="패스_233" data-name="패스 233" d="M5.126,0H2.5V-19.906H5.126Zm5.486-19.906,6.5,16.242,6.5-16.242h3.4V0H24.4V-7.752l.246-8.367L18.114,0H16.106L9.587-16.078l.26,8.326V0H7.223V-19.906ZM44.25,0H41.612V-9.2H31.581V0H28.958V-19.906h2.624v8.559H41.612v-8.559H44.25ZM55.32-5.373l.615,3.09.752-2.953L61-19.906h1.517l4.264,14.67.738,2.98.656-3.117,3.594-14.533H73.5L68.4,0H66.785l-4.51-15.572-.506-1.969-.492,1.969L56.659,0H55.047L49.963-19.906h1.722Zm33.419-3.5a11.506,11.506,0,0,1-.95,4.826,7.25,7.25,0,0,1-2.713,3.2A7.425,7.425,0,0,1,81,.273a7.067,7.067,0,0,1-5.63-2.5,9.979,9.979,0,0,1-2.146-6.733v-2.051a11.435,11.435,0,0,1,.963-4.819,7.361,7.361,0,0,1,2.726-3.227,7.366,7.366,0,0,1,4.059-1.128,7.434,7.434,0,0,1,4.052,1.107,7.274,7.274,0,0,1,2.713,3.131,11.272,11.272,0,0,1,1,4.689Zm-1.681-2.16a8.8,8.8,0,0,0-1.626-5.633A5.391,5.391,0,0,0,80.977-18.7a5.384,5.384,0,0,0-4.421,2.044,8.871,8.871,0,0,0-1.647,5.708v2.078a8.8,8.8,0,0,0,1.64,5.612A5.379,5.379,0,0,0,81-1.189a5.337,5.337,0,0,0,4.455-2.044,9.035,9.035,0,0,0,1.6-5.694Zm17.922,2.16a11.506,11.506,0,0,1-.95,4.826,7.25,7.25,0,0,1-2.713,3.2A7.424,7.424,0,0,1,97.245.273a7.067,7.067,0,0,1-5.63-2.5,9.979,9.979,0,0,1-2.146-6.733v-2.051a11.435,11.435,0,0,1,.963-4.819,7.361,7.361,0,0,1,2.726-3.227,7.366,7.366,0,0,1,4.059-1.128,7.434,7.434,0,0,1,4.052,1.107,7.274,7.274,0,0,1,2.713,3.131,11.272,11.272,0,0,1,1,4.689Zm-1.681-2.16a8.8,8.8,0,0,0-1.626-5.633A5.391,5.391,0,0,0,97.218-18.7,5.384,5.384,0,0,0,92.8-16.659a8.871,8.871,0,0,0-1.647,5.708v2.078a8.8,8.8,0,0,0,1.64,5.612,5.379,5.379,0,0,0,4.455,2.071A5.337,5.337,0,0,0,101.7-3.233a9.035,9.035,0,0,0,1.6-5.694ZM106.517,0V-19.906h5.562a8.65,8.65,0,0,1,4.387,1.114,7.7,7.7,0,0,1,3.027,3.192,10.058,10.058,0,0,1,1.086,4.73v1.832a10.058,10.058,0,0,1-1.08,4.73,7.683,7.683,0,0,1-3.041,3.186A8.911,8.911,0,0,1,111.956,0ZM108.2-18.471V-1.422h3.772a6.493,6.493,0,0,0,5.043-2.085,8.055,8.055,0,0,0,1.9-5.64V-10.9a7.868,7.868,0,0,0-1.872-5.5,6.383,6.383,0,0,0-4.933-2.078Zm17.621,13.1.615,3.09.752-2.953,4.318-14.67h1.517l4.264,14.67.738,2.98.656-3.117,3.594-14.533h1.722L138.9,0h-1.613l-4.51-15.572-.506-1.969-.492,1.969L127.158,0h-1.613l-5.084-19.906h1.722Zm33.419-3.5a11.506,11.506,0,0,1-.95,4.826,7.25,7.25,0,0,1-2.713,3.2A7.425,7.425,0,0,1,151.5.273a7.067,7.067,0,0,1-5.63-2.5,9.979,9.979,0,0,1-2.146-6.733v-2.051a11.435,11.435,0,0,1,.963-4.819,7.361,7.361,0,0,1,2.726-3.227,7.366,7.366,0,0,1,4.059-1.128,7.434,7.434,0,0,1,4.052,1.107,7.274,7.274,0,0,1,2.713,3.131,11.272,11.272,0,0,1,1,4.689Zm-1.681-2.16a8.8,8.8,0,0,0-1.626-5.633,5.391,5.391,0,0,0-4.455-2.037,5.384,5.384,0,0,0-4.421,2.044,8.871,8.871,0,0,0-1.647,5.708v2.078a8.8,8.8,0,0,0,1.64,5.612A5.379,5.379,0,0,0,151.5-1.189a5.337,5.337,0,0,0,4.455-2.044,9.035,9.035,0,0,0,1.6-5.694Zm10.652,2.748h-5.781V0h-1.695V-19.906H167.2a7.371,7.371,0,0,1,4.974,1.545,5.4,5.4,0,0,1,1.79,4.32,5.4,5.4,0,0,1-1.121,3.377,5.73,5.73,0,0,1-3.006,2.023l4.974,8.463V0h-1.79Zm-5.781-1.436h5.152a4.776,4.776,0,0,0,3.4-1.2,4.077,4.077,0,0,0,1.285-3.117,4.1,4.1,0,0,0-1.339-3.268,5.553,5.553,0,0,0-3.758-1.162h-4.742Zm17.895-.164-2.8,2.762V0h-1.681V-19.906h1.681V-9.174l10.195-10.732h2.118L181.5-11.047,190.477,0h-2.05Z" transform="translate(611.523 98.18)"/>
    <g id="그룹_15" data-name="그룹 15" transform="translate(572 70)">
      <g id="그룹_3" data-name="그룹 3" transform="translate(0 0)" clip-path="url(#clip-path)">
        <path id="패스_25" data-name="패스 25" d="M21.752,0H12.279A12.311,12.311,0,0,0,0,12.315V23.359A12.311,12.311,0,0,0,12.279,35.674H17.67V34.038H12.279A10.676,10.676,0,0,1,1.631,23.359V12.315A10.676,10.676,0,0,1,12.279,1.636h9.473A10.675,10.675,0,0,1,32.4,12.315V23.359A10.7,10.7,0,0,1,21.87,34.038l.017,1.636A12.339,12.339,0,0,0,34.031,23.359V12.315A12.311,12.311,0,0,0,21.752,0" transform="translate(0 0)"/>
        <path id="패스_26" data-name="패스 26" d="M24.4,26.7a.654.654,0,0,0,0-1.309c-3.6,0-5.9-1.79-7.217-5.626V16.007A7.908,7.908,0,0,0,24.4,19.869a.654.654,0,0,0,0-1.309c-3.6,0-5.9-1.79-7.217-5.625V9.843A7.908,7.908,0,0,0,24.4,13.7a.654.654,0,0,0,0-1.309c-3.63,0-5.934-1.817-7.252-5.719a.116.116,0,0,0-.01-.021.444.444,0,0,0-.016-.041L17.1,6.578c-.008-.014-.015-.028-.023-.04l-.022-.031-.025-.033A.474.474,0,0,0,17,6.437a.166.166,0,0,0-.024-.025l-.032-.029-.037-.029-.031-.02-.037-.022-.04-.021-.04-.016-.021-.009-.017,0-.043-.012-.044-.009-.041-.006-.044,0-.021,0-.022,0-.043,0-.043.006-.045.009-.04.01-.018,0-.021.009-.041.017-.037.018a.435.435,0,0,0-.039.023l-.032.021-.033.027-.034.03-.025.026a.412.412,0,0,0-.03.033L16,6.506a.317.317,0,0,0-.022.032c-.008.013-.015.025-.022.038s-.014.025-.02.038a.346.346,0,0,0-.016.041l-.01.021c-1.316,3.9-3.621,5.719-7.252,5.719a.654.654,0,0,0,0,1.309,7.907,7.907,0,0,0,7.217-3.861v3.091c-1.322,3.836-3.617,5.625-7.217,5.625a.654.654,0,0,0,0,1.309,7.907,7.907,0,0,0,7.217-3.861v3.755c-1.322,3.836-3.616,5.626-7.217,5.626a.654.654,0,0,0,0,1.309,7.907,7.907,0,0,0,7.217-3.861v7.549H11.939A7.377,7.377,0,0,1,4.58,23.008v-10.9a7.377,7.377,0,0,1,7.359-7.38h9.453a7.377,7.377,0,0,1,7.359,7.38v10.9a7.377,7.377,0,0,1-7.359,7.377v1.309a8.684,8.684,0,0,0,8.664-8.686v-10.9a8.687,8.687,0,0,0-8.664-8.69H11.939a8.687,8.687,0,0,0-8.664,8.69v10.9a8.684,8.684,0,0,0,8.664,8.686h5.244V22.836A7.908,7.908,0,0,0,24.4,26.7" transform="translate(0.487 0.521)"/>
        <path id="패스_27" data-name="패스 27" d="M16.452,27.442a.908.908,0,1,0,.907-.91.909.909,0,0,0-.907.91" transform="translate(2.447 4.037)"/>
        <path id="패스_28" data-name="패스 28" d="M17.389,29.274A1.128,1.128,0,1,0,18.513,30.4a1.126,1.126,0,0,0-1.125-1.128" transform="translate(2.419 4.454)"/>
      </g>
    </g>
  </g>
</svg>
