<svg xmlns="http://www.w3.org/2000/svg" xmlns:xlink="http://www.w3.org/1999/xlink" width="170" height="31.981" viewBox="0 0 170 31.981">
  <defs>
    <clipPath id="clip-path">
      <rect id="사각형_17" data-name="사각형 17" width="30.245" height="31.981"/>
    </clipPath>
  </defs>
  <g id="그룹_97" data-name="그룹 97" transform="translate(-572 -70)">
    <path id="패스_233" data-name="패스 233" d="M4.34-6.03H2.5V-19.988H4.34ZM8.182-19.988,12.738-8.6l4.556-11.389h2.383V-6.03H17.839v-5.436l.172-5.867L13.436-6.03H12.029L7.464-17.3l.182,5.838V-6.03H5.808V-19.988ZM31.74-6.03H29.893v-6.452H22.868V-6.03H21.03V-19.988h1.838v6h7.025v-6H31.74ZM39.494-9.8l.431,2.167L40.451-9.7l3.024-10.287h1.062L47.524-9.7l.517,2.09L48.5-9.8l2.517-10.191h1.206L48.653-6.03H47.524L44.365-16.949l-.354-1.381-.345,1.381L40.432-6.03H39.3l-3.56-13.958h1.206ZM62.9-12.251a8.076,8.076,0,0,1-.665,3.384,5.082,5.082,0,0,1-1.9,2.243,5.2,5.2,0,0,1-2.852.786,4.947,4.947,0,0,1-3.943-1.75,7,7,0,0,1-1.5-4.721v-1.438a8.027,8.027,0,0,1,.675-3.379,5.16,5.16,0,0,1,1.909-2.262,5.155,5.155,0,0,1,2.843-.791A5.2,5.2,0,0,1,60.3-19.4a5.1,5.1,0,0,1,1.9,2.2,7.912,7.912,0,0,1,.7,3.288Zm-1.177-1.515a6.176,6.176,0,0,0-1.139-3.95,3.774,3.774,0,0,0-3.12-1.428,3.769,3.769,0,0,0-3.1,1.433,6.226,6.226,0,0,0-1.153,4v1.457a6.176,6.176,0,0,0,1.149,3.935,3.766,3.766,0,0,0,3.12,1.452A3.736,3.736,0,0,0,60.6-8.3a6.341,6.341,0,0,0,1.12-3.993Zm12.552,1.515a8.076,8.076,0,0,1-.665,3.384,5.082,5.082,0,0,1-1.9,2.243,5.2,5.2,0,0,1-2.852.786,4.947,4.947,0,0,1-3.943-1.75,7,7,0,0,1-1.5-4.721v-1.438a8.027,8.027,0,0,1,.675-3.379,5.16,5.16,0,0,1,1.909-2.262,5.155,5.155,0,0,1,2.843-.791,5.2,5.2,0,0,1,2.838.777,5.1,5.1,0,0,1,1.9,2.2,7.912,7.912,0,0,1,.7,3.288ZM73.1-13.766a6.176,6.176,0,0,0-1.139-3.95,3.774,3.774,0,0,0-3.12-1.428,3.769,3.769,0,0,0-3.1,1.433,6.226,6.226,0,0,0-1.153,4v1.457a6.176,6.176,0,0,0,1.149,3.935,3.766,3.766,0,0,0,3.12,1.452A3.736,3.736,0,0,0,71.977-8.3,6.341,6.341,0,0,0,73.1-12.29ZM75.35-6.03V-19.988h3.9a6.052,6.052,0,0,1,3.072.781,5.4,5.4,0,0,1,2.12,2.239,7.06,7.06,0,0,1,.761,3.317v1.285a7.06,7.06,0,0,1-.756,3.317,5.385,5.385,0,0,1-2.13,2.234,6.235,6.235,0,0,1-3.154.786Zm1.177-12.952V-7.027h2.642A4.545,4.545,0,0,0,82.7-8.489a5.652,5.652,0,0,0,1.33-3.955V-13.67a5.521,5.521,0,0,0-1.311-3.854,4.468,4.468,0,0,0-3.455-1.457ZM88.869-9.8,89.3-7.631,89.826-9.7,92.85-19.988h1.062L96.9-9.7l.517,2.09L97.875-9.8l2.517-10.191H101.6L98.028-6.03H96.9L93.74-16.949l-.354-1.381-.345,1.381L89.807-6.03H88.677l-3.56-13.958h1.206Zm23.405-2.454a8.076,8.076,0,0,1-.665,3.384,5.082,5.082,0,0,1-1.9,2.243,5.2,5.2,0,0,1-2.852.786,4.947,4.947,0,0,1-3.943-1.75,7,7,0,0,1-1.5-4.721v-1.438a8.027,8.027,0,0,1,.675-3.379A5.16,5.16,0,0,1,104-19.389a5.154,5.154,0,0,1,2.843-.791,5.2,5.2,0,0,1,2.838.777,5.1,5.1,0,0,1,1.9,2.2,7.912,7.912,0,0,1,.7,3.288ZM111.1-13.766a6.176,6.176,0,0,0-1.139-3.95,3.774,3.774,0,0,0-3.12-1.428,3.769,3.769,0,0,0-3.1,1.433,6.226,6.226,0,0,0-1.153,4v1.457a6.176,6.176,0,0,0,1.149,3.935,3.766,3.766,0,0,0,3.12,1.452,3.736,3.736,0,0,0,3.12-1.433,6.341,6.341,0,0,0,1.12-3.993Zm7.46,1.927h-4.049v5.81h-1.187V-19.988h4.527a5.158,5.158,0,0,1,3.484,1.083,3.789,3.789,0,0,1,1.254,3.029,3.79,3.79,0,0,1-.785,2.368,4.013,4.013,0,0,1-2.106,1.419l3.484,5.934v.125h-1.254Zm-4.049-1.007h3.608a3.343,3.343,0,0,0,2.383-.844,2.86,2.86,0,0,0,.9-2.186,2.873,2.873,0,0,0-.938-2.291,3.886,3.886,0,0,0-2.632-.815h-3.321Zm12.533-.115-1.962,1.937V-6.03H123.9V-19.988h1.177v7.526l7.14-7.526H133.7l-5.838,6.212,6.288,7.746h-1.436Z" transform="translate(607.848 99.227)"/>
    <g id="그룹_15" data-name="그룹 15" transform="translate(572 70)">
      <g id="그룹_3" data-name="그룹 3" transform="translate(0 0)" clip-path="url(#clip-path)">
        <path id="패스_25" data-name="패스 25" d="M19.332,0h-8.42A10.941,10.941,0,0,0,0,10.945V20.76A10.941,10.941,0,0,0,10.913,31.705H15.7V30.251H10.913A9.488,9.488,0,0,1,1.45,20.76V10.945a9.488,9.488,0,0,1,9.463-9.491h8.42A9.488,9.488,0,0,1,28.8,10.945V20.76a9.51,9.51,0,0,1-9.358,9.491l.015,1.454A10.967,10.967,0,0,0,30.245,20.76V10.945A10.941,10.941,0,0,0,19.332,0" transform="translate(0 0)"/>
        <path id="패스_26" data-name="패스 26" d="M22.05,24.108a.582.582,0,0,0,0-1.163c-3.2,0-5.239-1.591-6.414-5V14.607a7.029,7.029,0,0,0,6.414,3.432.582.582,0,0,0,0-1.163c-3.2,0-5.239-1.591-6.414-5V9.129a7.029,7.029,0,0,0,6.414,3.432.582.582,0,0,0,0-1.163c-3.226,0-5.274-1.615-6.445-5.083A.1.1,0,0,0,15.6,6.3c0-.013-.009-.025-.014-.037l-.016-.033c-.007-.012-.013-.025-.02-.036l-.019-.028-.022-.03a.422.422,0,0,0-.029-.032.148.148,0,0,0-.021-.023l-.029-.026-.033-.026-.028-.017-.033-.019L15.3,5.973l-.036-.014-.018-.008-.015,0-.038-.01-.039-.008-.037-.005-.039,0-.018,0-.019,0-.038,0-.038.005-.04.008-.036.009-.016,0-.018.008-.037.015-.033.016a.386.386,0,0,0-.035.02l-.029.018-.03.024-.031.027-.022.024a.366.366,0,0,0-.027.03l-.023.031a.282.282,0,0,0-.019.029c-.007.011-.013.023-.019.034s-.012.023-.017.034a.309.309,0,0,0-.014.037l-.009.018C13.335,9.783,11.287,11.4,8.06,11.4a.582.582,0,0,0,0,1.163A7.028,7.028,0,0,0,14.474,9.13v2.747c-1.175,3.409-3.215,5-6.414,5a.582.582,0,0,0,0,1.163,7.028,7.028,0,0,0,6.414-3.431v3.337c-1.175,3.409-3.214,5-6.414,5a.582.582,0,0,0,0,1.163,7.028,7.028,0,0,0,6.414-3.431v6.709h-3.5a6.556,6.556,0,0,1-6.54-6.557V11.146a6.557,6.557,0,0,1,6.54-6.559h8.4a6.557,6.557,0,0,1,6.54,6.559V20.83a6.556,6.556,0,0,1-6.54,6.557v1.163a7.718,7.718,0,0,0,7.7-7.72V11.146a7.72,7.72,0,0,0-7.7-7.723h-8.4a7.72,7.72,0,0,0-7.7,7.723V20.83a7.718,7.718,0,0,0,7.7,7.72h4.66V20.676a7.029,7.029,0,0,0,6.414,3.432" transform="translate(0.069 0.082)"/>
        <path id="패스_27" data-name="패스 27" d="M16.452,27.341a.807.807,0,1,0,.807-.809.808.808,0,0,0-.807.809" transform="translate(0.344 0.636)"/>
        <path id="패스_28" data-name="패스 28" d="M17.263,29.274a1,1,0,1,0,1,1,1,1,0,0,0-1-1" transform="translate(0.34 0.702)"/>
      </g>
    </g>
  </g>
</svg>
