<svg xmlns="http://www.w3.org/2000/svg" xmlns:xlink="http://www.w3.org/1999/xlink" width="189.999" height="36" viewBox="0 0 189.999 36">
  <defs>
    <clipPath id="clip-path">
      <rect id="사각형_17" data-name="사각형 17" width="34.046" height="36"/>
    </clipPath>
  </defs>
  <g id="그룹_97" data-name="그룹 97" transform="translate(-572 -70)">
    <path id="패스_233" data-name="패스 233" d="M4.565-4.251H2.5V-19.964H4.565ZM8.88-19.964,14-7.143l5.116-12.82h2.676V-4.251H19.724V-10.37l.193-6.6L14.78-4.251H13.2L8.074-16.942l.2,6.572v6.119H6.215V-19.964ZM35.334-4.251H33.26v-7.263H25.371v7.263H23.308V-19.964h2.063v6.756H33.26v-6.756h2.074ZM44.04-8.492l.484,2.439.591-2.331,3.4-11.579H49.7L53.057-8.384l.58,2.353.516-2.46L56.98-19.964h1.354L54.325-4.251H53.057L49.51-16.543l-.4-1.554-.387,1.554L45.093-4.251H43.825l-4-15.713h1.354Zm26.282-2.763a9.111,9.111,0,0,1-.747,3.809A5.717,5.717,0,0,1,67.442-4.92a5.823,5.823,0,0,1-3.2.885A5.549,5.549,0,0,1,59.811-6a7.9,7.9,0,0,1-1.687-5.315v-1.619a9.055,9.055,0,0,1,.758-3.8,5.8,5.8,0,0,1,2.144-2.547,5.777,5.777,0,0,1,3.192-.89,5.83,5.83,0,0,1,3.187.874,5.736,5.736,0,0,1,2.133,2.471,8.925,8.925,0,0,1,.785,3.7ZM69-12.96a6.965,6.965,0,0,0-1.279-4.446,4.234,4.234,0,0,0-3.5-1.608A4.228,4.228,0,0,0,60.741-17.4a7.02,7.02,0,0,0-1.3,4.506v1.64a6.965,6.965,0,0,0,1.29,4.43,4.225,4.225,0,0,0,3.5,1.635,4.191,4.191,0,0,0,3.5-1.613A7.15,7.15,0,0,0,69-11.3Zm14.095,1.705a9.111,9.111,0,0,1-.747,3.809A5.717,5.717,0,0,1,80.214-4.92a5.823,5.823,0,0,1-3.2.885A5.549,5.549,0,0,1,72.584-6,7.9,7.9,0,0,1,70.9-11.32v-1.619a9.055,9.055,0,0,1,.758-3.8A5.8,5.8,0,0,1,73.8-19.289a5.777,5.777,0,0,1,3.192-.89,5.83,5.83,0,0,1,3.187.874,5.735,5.735,0,0,1,2.133,2.471,8.925,8.925,0,0,1,.785,3.7ZM81.772-12.96a6.965,6.965,0,0,0-1.279-4.446,4.234,4.234,0,0,0-3.5-1.608A4.228,4.228,0,0,0,73.513-17.4a7.02,7.02,0,0,0-1.3,4.506v1.64a6.964,6.964,0,0,0,1.29,4.43,4.225,4.225,0,0,0,3.5,1.635,4.191,4.191,0,0,0,3.5-1.613A7.15,7.15,0,0,0,81.772-11.3ZM84.3-4.251V-19.964h4.374a6.783,6.783,0,0,1,3.45.88,6.07,6.07,0,0,1,2.381,2.52,7.963,7.963,0,0,1,.854,3.734v1.446a7.963,7.963,0,0,1-.849,3.734,6.055,6.055,0,0,1-2.391,2.514,6.988,6.988,0,0,1-3.541.885Zm1.322-14.579V-5.374h2.966a5.1,5.1,0,0,0,3.966-1.646,6.372,6.372,0,0,0,1.494-4.452v-1.381a6.225,6.225,0,0,0-1.472-4.338,5.011,5.011,0,0,0-3.88-1.64ZM99.483-8.492l.484,2.439.591-2.331,3.4-11.579h1.193L108.5-8.384l.58,2.353.516-2.46,2.827-11.471h1.354L109.768-4.251H108.5l-3.547-12.292-.4-1.554-.387,1.554L100.536-4.251H99.268l-4-15.713h1.354Zm26.282-2.763a9.11,9.11,0,0,1-.747,3.809,5.717,5.717,0,0,1-2.133,2.525,5.823,5.823,0,0,1-3.2.885A5.549,5.549,0,0,1,115.254-6a7.9,7.9,0,0,1-1.687-5.315v-1.619a9.055,9.055,0,0,1,.758-3.8,5.8,5.8,0,0,1,2.144-2.547,5.777,5.777,0,0,1,3.192-.89,5.83,5.83,0,0,1,3.187.874,5.735,5.735,0,0,1,2.133,2.471,8.925,8.925,0,0,1,.785,3.7Zm-1.322-1.705a6.965,6.965,0,0,0-1.279-4.446,4.234,4.234,0,0,0-3.5-1.608,4.228,4.228,0,0,0-3.477,1.613,7.02,7.02,0,0,0-1.3,4.506v1.64a6.965,6.965,0,0,0,1.29,4.43,4.225,4.225,0,0,0,3.5,1.635,4.191,4.191,0,0,0,3.5-1.613,7.15,7.15,0,0,0,1.257-4.495Zm8.377,2.169h-4.546v6.54h-1.333V-19.964h5.083a5.783,5.783,0,0,1,3.912,1.219,4.271,4.271,0,0,1,1.408,3.41,4.273,4.273,0,0,1-.881,2.666,4.505,4.505,0,0,1-2.364,1.6l3.912,6.68v.14H136.6Zm-4.546-1.133h4.052a3.748,3.748,0,0,0,2.676-.95,3.224,3.224,0,0,0,1.01-2.46,3.238,3.238,0,0,0-1.053-2.579A4.357,4.357,0,0,0,132-18.831h-3.729Zm14.073-.129-2.2,2.18v5.622h-1.322V-19.964h1.322v8.471l8.017-8.471h1.666l-6.556,6.993,7.061,8.72H148.72Z" transform="translate(611.667 100.364)"/>
    <g id="그룹_15" data-name="그룹 15" transform="translate(572 70)">
      <g id="그룹_3" data-name="그룹 3" transform="translate(0 0)" clip-path="url(#clip-path)">
        <path id="패스_25" data-name="패스 25" d="M21.762,0H12.284A12.316,12.316,0,0,0,0,12.321V23.369A12.316,12.316,0,0,0,12.284,35.69h5.393V34.053H12.284A10.681,10.681,0,0,1,1.632,23.369V12.321A10.681,10.681,0,0,1,12.284,1.637h9.478A10.68,10.68,0,0,1,32.414,12.321V23.369A10.7,10.7,0,0,1,21.88,34.053L21.9,35.69A12.345,12.345,0,0,0,34.046,23.369V12.321A12.316,12.316,0,0,0,21.762,0" transform="translate(0 0)"/>
        <path id="패스_26" data-name="패스 26" d="M24.409,26.708a.655.655,0,0,0,0-1.309c-3.6,0-5.9-1.791-7.221-5.628V16.012a7.912,7.912,0,0,0,7.221,3.864.655.655,0,0,0,0-1.309c-3.6,0-5.9-1.791-7.221-5.627V9.846a7.912,7.912,0,0,0,7.221,3.864.655.655,0,0,0,0-1.309c-3.632,0-5.937-1.818-7.255-5.722a.117.117,0,0,0-.01-.021c0-.015-.01-.028-.016-.041l-.018-.037c-.008-.014-.015-.028-.023-.04l-.022-.031-.025-.033a.475.475,0,0,0-.032-.036.167.167,0,0,0-.024-.025l-.032-.029-.037-.029-.031-.02-.037-.022-.04-.021-.04-.016-.021-.009-.017,0-.043-.012-.044-.009L16.6,6.238l-.044,0-.021,0-.022,0-.043,0-.043.006-.045.009-.04.01-.018,0-.021.009-.041.017-.037.018a.435.435,0,0,0-.039.023l-.032.021-.033.027-.034.03-.025.027a.411.411,0,0,0-.03.033l-.026.035a.317.317,0,0,0-.022.032c-.008.013-.015.025-.022.038s-.014.025-.02.038a.347.347,0,0,0-.016.041l-.01.021C14.6,10.582,12.294,12.4,8.661,12.4a.655.655,0,0,0,0,1.309,7.911,7.911,0,0,0,7.221-3.863v3.093c-1.323,3.837-3.619,5.627-7.221,5.627a.655.655,0,0,0,0,1.309,7.911,7.911,0,0,0,7.221-3.863V19.77C14.559,23.607,12.264,25.4,8.661,25.4a.655.655,0,0,0,0,1.309,7.911,7.911,0,0,0,7.221-3.863V30.4h-3.94a7.38,7.38,0,0,1-7.362-7.381v-10.9a7.381,7.381,0,0,1,7.362-7.383H21.4a7.381,7.381,0,0,1,7.362,7.383v10.9A7.38,7.38,0,0,1,21.4,30.4v1.309a8.688,8.688,0,0,0,8.667-8.69v-10.9A8.691,8.691,0,0,0,21.4,3.423H11.942a8.691,8.691,0,0,0-8.667,8.693v10.9a8.688,8.688,0,0,0,8.667,8.69h5.246V22.844a7.912,7.912,0,0,0,7.221,3.864" transform="translate(0.489 0.523)"/>
        <path id="패스_27" data-name="패스 27" d="M16.452,27.443a.908.908,0,1,0,.908-.911.91.91,0,0,0-.908.911" transform="translate(2.455 4.051)"/>
        <path id="패스_28" data-name="패스 28" d="M17.389,29.274A1.128,1.128,0,1,0,18.514,30.4a1.126,1.126,0,0,0-1.125-1.128" transform="translate(2.427 4.469)"/>
      </g>
    </g>
  </g>
</svg>
